# Blender v2.79 (sub 0) OBJ File: ''
# www.blender.org
mtllib barrel.mtl
o Cylinder
v 0.000000 -1.000000 -1.000000
v -0.000000 1.000000 -0.843443
v 0.951057 -1.000000 -0.309017
v 0.802162 1.000000 -0.260638
v 0.587785 -1.000000 0.809017
v 0.495763 1.000000 0.682360
v -0.587785 -1.000000 0.809017
v -0.495763 1.000000 0.682360
v -0.951056 -1.000000 -0.309017
v -0.802162 1.000000 -0.260638
v 0.951057 1.000000 -0.309017
v 0.000000 1.000000 -1.000000
v 0.587785 1.000000 0.809017
v -0.587785 1.000000 0.809017
v -0.951056 1.000000 -0.309017
v -0.000000 0.892682 -0.843443
v 0.802162 0.892682 -0.260638
v 0.495763 0.892682 0.682360
v -0.495763 0.892682 0.682360
v -0.802162 0.892682 -0.260638
vt 0.500000 0.500000
vt 1.000000 0.500000
vt 1.000000 1.000000
vt 0.500000 1.000000
vt 0.500000 0.500000
vt 1.000000 0.500000
vt 1.000000 1.000000
vt 0.500000 1.000000
vt 0.500000 0.500000
vt 1.000000 0.500000
vt 1.000000 1.000000
vt 0.500000 1.000000
vt 0.500000 0.500000
vt 1.000000 0.500000
vt 1.000000 1.000000
vt 0.500000 1.000000
vt 0.500000 0.500000
vt 1.000000 0.500000
vt 1.000000 1.000000
vt 0.500000 1.000000
vt 0.500000 0.500000
vt 1.000000 0.500000
vt 1.000000 1.000000
vt 0.500000 1.000000
vt 0.975528 0.654508
vt 0.793893 0.095491
vt 0.206107 0.095492
vt 0.024472 0.654509
vt 0.535566 0.539343
vt 0.535567 0.961036
vt 0.589434 1.000173
vt 0.589434 0.500206
vt 0.589434 0.538366
vt 0.589433 0.960060
vt 0.535566 0.999196
vt 0.535566 0.499229
vt 0.587481 0.538366
vt 0.587480 0.960060
vt 0.533613 0.999196
vt 0.533613 0.499229
vt 0.526778 0.540319
vt 0.526777 0.962013
vt 0.580644 1.001150
vt 0.580644 0.501182
vt 0.568041 0.537678
vt 0.568041 0.959400
vt 0.514170 0.998539
vt 0.514171 0.498539
vt 0.242188 0.967202
vt 0.473759 0.798955
vt 0.385306 0.526727
vt 0.099069 0.526727
vt 0.010616 0.798956
vt 0.500000 0.500000
vt 1.000000 0.500000
vt 1.000000 1.000000
vt 0.500000 1.000000
vt 0.500000 0.500000
vt 1.000000 0.500000
vt 1.000000 1.000000
vt 0.500000 1.000000
vt 0.500000 0.500000
vt 1.000000 0.500000
vt 1.000000 1.000000
vt 0.500000 1.000000
vt 1.000000 1.000000
vt 0.500000 1.000000
vt 0.500000 0.500000
vt 1.000000 0.500000
vn 0.5878 0.0000 -0.8090
vn 0.9511 0.0000 0.3090
vn -0.0000 0.0000 1.0000
vn 0.5878 0.0000 0.8090
vn -0.9511 0.0000 0.3090
vn -0.5878 0.0000 -0.8090
vn 0.0000 -1.0000 0.0000
vn 0.0000 1.0000 0.0000
vn 0.0000 0.0000 -1.0000
vn -0.5878 0.0000 0.8090
vn 0.9511 0.0000 -0.3090
vn -0.9511 0.0000 -0.3090
usemtl Material.001
s off
f 1/1/1 12/2/1 11/3/1 3/4/1
f 3/5/2 11/6/2 13/7/2 5/8/2
f 5/9/3 13/10/3 14/11/3 7/12/3
f 2/13/4 10/14/4 20/15/4 16/16/4
f 7/17/5 14/18/5 15/19/5 9/20/5
f 9/21/6 15/22/6 12/23/6 1/24/6
f 1/24/7 3/25/7 5/26/7 7/27/7 9/28/7
f 2/29/8 4/30/8 11/31/8 12/32/8
f 4/33/8 6/34/8 13/35/8 11/36/8
f 6/37/8 8/38/8 14/39/8 13/40/8
f 8/41/8 10/42/8 15/43/8 14/44/8
f 10/45/8 2/46/8 12/47/8 15/48/8
f 17/49/8 16/50/8 20/51/8 19/52/8 18/53/8
f 8/54/9 6/55/9 18/56/9 19/57/9
f 4/58/10 2/59/10 16/60/10 17/61/10
f 10/62/11 8/63/11 19/64/11 20/65/11
f 6/66/12 4/67/12 17/68/12 18/69/12
