# Blender v2.91.0 OBJ File: ''
# www.blender.org
mtllib bush.mtl
o Icosphere
v 1.105555 1.621412 3.402597
v -2.894427 1.621411 2.102901
v -2.894427 1.621411 -2.102901
v 1.105555 1.621412 -3.402597
v 3.577708 1.621395 0.000000
v 0.000003 3.832533 0.000000
v 3.804234 -0.167467 1.236050
v 3.804234 -0.167467 -1.236050
v 0.000003 -0.167467 4.000000
v 2.351145 -0.167467 3.236067
v -3.804229 -0.167467 1.236050
v -2.351140 -0.167467 3.236067
v -2.351140 -0.167467 -3.236067
v -3.804229 -0.167467 -1.236050
v 2.351145 -0.167467 -3.236067
v 0.000003 -0.167467 -4.000000
v 2.752760 1.935478 1.999988
v -1.051473 1.935483 3.236047
v -3.402589 1.935477 0.000000
v -1.051473 1.935483 -3.236047
v 2.752760 1.935478 -1.999988
v 0.649825 3.235150 1.999981
v 2.102922 3.235140 0.000000
v -1.701288 3.235150 1.236046
v -1.701288 3.235150 -1.236046
v 0.649825 3.235150 -1.999981
vt 0.382227 0.213010
vt 0.559784 0.240531
vt 0.432871 0.368875
vt 0.173717 0.500001
vt 0.254759 0.339640
vt 0.337603 0.500000
vt 0.382226 0.786990
vt 0.254759 0.660360
vt 0.432871 0.631125
vt 0.719604 0.677372
vt 0.559781 0.759469
vt 0.587018 0.581041
vt 0.719607 0.322630
vt 0.748299 0.500000
vt 0.587020 0.418960
vt 0.475477 0.500000
vt 0.951056 0.345649
vt 0.951056 0.654351
vt 0.769234 0.904607
vt 0.475641 1.000000
vt 0.181447 0.904409
vt 0.000000 0.654668
vt 0.000000 0.345333
vt 0.181450 0.095589
vt 0.475644 0.000000
vt 0.769237 0.095396
vn 0.4089 0.6617 0.6284
vn -0.4713 0.6617 0.5831
vn -0.7002 0.6617 -0.2680
vn 0.0385 0.6617 -0.7488
vn 0.7240 0.6617 -0.1947
vn 0.2680 0.9435 -0.1947
vn 0.4911 0.7947 -0.3568
vn 0.4089 0.6617 -0.6284
vn -0.1024 0.9435 -0.3151
vn -0.1876 0.7947 -0.5773
vn -0.4713 0.6617 -0.5831
vn -0.3313 0.9435 0.0000
vn -0.6071 0.7947 0.0000
vn -0.7002 0.6617 0.2680
vn -0.1024 0.9435 0.3151
vn -0.1876 0.7947 0.5773
vn 0.0385 0.6617 0.7488
vn 0.2680 0.9435 0.1947
vn 0.4911 0.7947 0.3568
vn 0.7240 0.6617 0.1947
vn 0.8897 0.3304 -0.3151
vn 0.7947 0.1876 -0.5773
vn 0.5746 0.3304 -0.7488
vn -0.0247 0.3304 -0.9435
vn -0.3035 0.1876 -0.9342
vn -0.5346 0.3304 -0.7779
vn -0.9050 0.3304 -0.2680
vn -0.9822 0.1876 0.0000
vn -0.9050 0.3304 0.2680
vn -0.5346 0.3304 0.7779
vn -0.3035 0.1876 0.9342
vn -0.0247 0.3304 0.9435
vn 0.5746 0.3304 0.7488
vn 0.7947 0.1876 0.5773
vn 0.8897 0.3304 0.3151
vn 0.3066 0.1256 -0.9435
vn -0.8026 0.1256 -0.5831
vn -0.8026 0.1256 0.5831
vn 0.3066 0.1256 0.9435
vn 0.9921 0.1256 0.0000
usemtl None
s off
f 1/1/1 17/2/1 22/3/1
f 2/4/2 18/5/2 24/6/2
f 3/7/3 19/8/3 25/9/3
f 4/10/4 20/11/4 26/12/4
f 5/13/5 21/14/5 23/15/5
f 23/15/6 26/12/6 6/16/6
f 23/15/7 21/14/7 26/12/7
f 21/14/8 4/10/8 26/12/8
f 26/12/9 25/9/9 6/16/9
f 26/12/10 20/11/10 25/9/10
f 20/11/11 3/7/11 25/9/11
f 25/9/12 24/6/12 6/16/12
f 25/9/13 19/8/13 24/6/13
f 19/8/14 2/4/14 24/6/14
f 24/6/15 22/3/15 6/16/15
f 24/6/16 18/5/16 22/3/16
f 18/5/17 1/1/17 22/3/17
f 22/3/18 23/15/18 6/16/18
f 22/3/19 17/2/19 23/15/19
f 17/2/20 5/13/20 23/15/20
f 8/17/21 21/14/21 5/13/21
f 8/17/22 15/18/22 21/14/22
f 15/18/23 4/10/23 21/14/23
f 16/19/24 20/11/24 4/10/24
f 16/19/25 13/20/25 20/11/25
f 13/20/26 3/7/26 20/11/26
f 14/21/27 19/8/27 3/7/27
f 14/21/28 11/22/28 19/8/28
f 11/22/29 2/4/29 19/8/29
f 12/23/30 18/5/30 2/4/30
f 12/23/31 9/24/31 18/5/31
f 9/24/32 1/1/32 18/5/32
f 10/25/33 17/2/33 1/1/33
f 10/25/34 7/26/34 17/2/34
f 7/26/35 5/13/35 17/2/35
f 15/18/36 16/19/36 4/10/36
f 13/20/37 14/21/37 3/7/37
f 11/22/38 12/23/38 2/4/38
f 9/24/39 10/25/39 1/1/39
f 7/26/40 8/17/40 5/13/40
