# Blender v2.79 (sub 0) OBJ File: ''
# www.blender.org
mtllib exit.mtl
o Cube.003_Cube.004
v 2.160000 0.000000 0.800000
v 2.160000 0.200000 0.800000
v 2.160000 0.000000 -0.800000
v 2.160000 0.200000 -0.800000
v 2.360000 0.000000 0.800000
v 2.360000 0.200000 0.800000
v 2.360000 0.000000 -0.800000
v 2.360000 0.200000 -0.800000
v 2.160000 0.800000 0.800000
v 2.160000 1.000000 0.800000
v 2.160000 0.800000 -0.800000
v 2.160000 1.000000 -0.800000
v 2.360000 0.800000 0.800000
v 2.360000 1.000000 0.800000
v 2.360000 0.800000 -0.800000
v 2.360000 1.000000 -0.800000
v 2.160000 -0.300000 1.000000
v 2.160000 1.300000 1.000000
v 2.160000 -0.300000 0.800000
v 2.160000 1.300000 0.800000
v 2.360000 -0.300000 1.000000
v 2.360000 1.300000 1.000000
v 2.360000 -0.300000 0.800000
v 2.360000 1.300000 0.800000
v 2.160000 -0.300000 -0.800000
v 2.160000 1.300000 -0.800000
v 2.160000 -0.300000 -1.000000
v 2.160000 1.300000 -1.000000
v 2.360000 -0.300000 -0.800000
v 2.360000 1.300000 -0.800000
v 2.360000 -0.300000 -1.000000
v 2.360000 1.300000 -1.000000
v 0.000000 -0.500000 -3.000000
v 0.000000 0.500000 -2.738052
v 2.598076 -0.500000 -1.500000
v 2.371222 0.500000 -1.369026
v 2.598076 -0.500000 1.500000
v 2.371222 0.500000 1.369026
v -0.000000 -0.500000 3.000000
v -0.000000 0.500000 2.738052
v -2.598076 -0.500000 1.500000
v -2.371223 0.500000 1.369026
v -2.598076 -0.500000 -1.500000
v -2.371223 0.500000 -1.369026
v 2.598076 0.500000 -1.500000
v 0.000000 0.500000 -3.000000
v 2.598076 0.500000 1.500000
v -0.000000 0.500000 3.000000
v -2.598076 0.500000 1.500000
v -2.598076 0.500000 -1.500000
v 2.371222 -0.315400 -1.369026
v 0.000000 -0.315400 -2.738052
v 2.371222 -0.315400 1.369026
v -0.000000 -0.315400 2.738052
v -2.371223 -0.315400 1.369026
v -2.371223 -0.315400 -1.369026
vt 0.943043 0.828747
vt 0.924418 0.828747
vt 0.924418 0.684242
vt 0.943043 0.684242
vt 0.288678 0.978848
vt 0.270054 0.978848
vt 0.270054 0.834342
vt 0.288678 0.834342
vt 0.381800 0.834342
vt 0.400425 0.834342
vt 0.400425 0.978848
vt 0.381800 0.978848
vt 0.972063 0.334169
vt 0.990688 0.334169
vt 0.990688 0.478674
vt 0.972063 0.478674
vt 0.325927 0.978848
vt 0.307303 0.978848
vt 0.307303 0.834342
vt 0.325927 0.834342
vt 0.924418 0.521674
vt 0.943043 0.521674
vt 0.943043 0.666179
vt 0.924418 0.666179
vt 0.344552 0.834342
vt 0.363176 0.834342
vt 0.363176 0.978848
vt 0.344552 0.978848
vt 0.232805 0.834342
vt 0.251429 0.834342
vt 0.251430 0.978848
vt 0.232805 0.978848
vt 0.421917 0.713495
vt 0.421917 0.568990
vt 0.440542 0.568990
vt 0.440542 0.713495
vt 0.972063 0.153537
vt 0.972063 0.009032
vt 0.990688 0.009032
vt 0.990688 0.153537
vt 0.477791 0.731558
vt 0.477791 0.876063
vt 0.459166 0.876063
vt 0.459166 0.731558
vt 0.961667 0.666179
vt 0.961667 0.521674
vt 0.980291 0.521674
vt 0.980291 0.666179
vt 0.009312 0.858000
vt 0.027937 0.858000
vt 0.027937 0.876064
vt 0.009312 0.876064
vt 0.421917 0.876064
vt 0.421917 0.731558
vt 0.440542 0.731558
vt 0.440542 0.876064
vt 0.961667 0.828747
vt 0.961667 0.684242
vt 0.980291 0.684242
vt 0.980291 0.828747
vt 0.477791 0.568990
vt 0.477791 0.713495
vt 0.459166 0.713495
vt 0.459166 0.568990
vt 0.972063 0.316105
vt 0.972063 0.171600
vt 0.990688 0.171600
vt 0.990688 0.316105
vt 0.046561 0.858000
vt 0.065185 0.858000
vt 0.065185 0.876064
vt 0.046561 0.876064
vt 0.604935 0.756321
vt 0.511813 0.756321
vt 0.511813 0.521674
vt 0.604935 0.521674
vt 0.102434 0.839937
vt 0.009312 0.839937
vt 0.009312 0.568990
vt 0.102434 0.568990
vt 0.716681 0.990968
vt 0.623559 0.990968
vt 0.623559 0.756321
vt 0.716681 0.756321
vt 0.623559 0.521674
vt 0.716681 0.521674
vt 0.829862 0.735833
vt 0.829862 0.521674
vt 0.905794 0.521674
vt 0.905794 0.735833
vt 0.214181 0.839937
vt 0.121059 0.839937
vt 0.121059 0.568990
vt 0.214181 0.568990
vt 0.604935 0.990968
vt 0.511813 0.990968
vt 0.251250 0.032690
vt 0.030437 0.156334
vt 0.009312 0.144505
vt 0.251250 0.009032
vt 0.030437 0.403624
vt 0.009312 0.415453
vt 0.251250 0.527268
vt 0.251250 0.550927
vt 0.472063 0.403624
vt 0.493188 0.415453
vt 0.472063 0.156334
vt 0.493188 0.144505
vt 0.732626 0.009032
vt 0.953439 0.132676
vt 0.953439 0.379966
vt 0.732626 0.503610
vt 0.511813 0.379966
vt 0.511813 0.132676
vt 0.811238 0.521674
vt 0.811238 0.735833
vt 0.735306 0.735833
vt 0.735306 0.521674
vt 0.811238 0.949992
vt 0.735306 0.949992
vt 0.829862 0.949992
vt 0.905794 0.949992
vt 0.232805 0.816279
vt 0.232805 0.568990
vt 0.308737 0.568990
vt 0.308737 0.816279
vt 0.403293 0.568990
vt 0.403293 0.816279
vt 0.327361 0.816279
vt 0.327361 0.568990
vn -1.0000 0.0000 0.0000
vn 1.0000 0.0000 0.0000
vn 0.0000 -1.0000 0.0000
vn 0.0000 1.0000 0.0000
vn 0.0000 0.0000 -1.0000
vn 0.0000 0.0000 1.0000
vn 0.5000 0.0000 -0.8660
vn 0.5000 0.0000 0.8660
vn -0.5000 0.0000 0.8660
vn -0.5000 0.0000 -0.8660
usemtl None
s off
f 1/1/1 2/2/1 4/3/1 3/4/1
f 7/5/2 8/6/2 6/7/2 5/8/2
f 3/9/3 7/10/3 5/11/3 1/12/3
f 8/13/4 4/14/4 2/15/4 6/16/4
f 9/17/1 10/18/1 12/19/1 11/20/1
f 15/21/2 16/22/2 14/23/2 13/24/2
f 11/25/3 15/26/3 13/27/3 9/28/3
f 16/29/4 12/30/4 10/31/4 14/32/4
f 17/33/1 18/34/1 20/35/1 19/36/1
f 19/37/5 20/38/5 24/39/5 23/40/5
f 23/41/2 24/42/2 22/43/2 21/44/2
f 21/45/6 22/46/6 18/47/6 17/48/6
f 24/49/4 20/50/4 18/51/4 22/52/4
f 25/53/1 26/54/1 28/55/1 27/56/1
f 27/57/5 28/58/5 32/59/5 31/60/5
f 31/61/2 32/62/2 30/63/2 29/64/2
f 29/65/6 30/66/6 26/67/6 25/68/6
f 32/69/4 28/70/4 26/71/4 30/72/4
f 33/73/7 46/74/7 45/75/7 35/76/7
f 35/77/2 45/78/2 47/79/2 37/80/2
f 37/81/8 47/82/8 48/83/8 39/84/8
f 39/84/9 48/83/9 49/85/9 41/86/9
f 40/87/10 38/88/10 53/89/10 54/90/10
f 41/91/1 49/92/1 50/93/1 43/94/1
f 43/95/10 50/96/10 46/74/10 33/73/10
f 34/97/4 36/98/4 45/99/4 46/100/4
f 36/98/4 38/101/4 47/102/4 45/99/4
f 38/101/4 40/103/4 48/104/4 47/102/4
f 40/103/4 42/105/4 49/106/4 48/104/4
f 42/105/4 44/107/4 50/108/4 49/106/4
f 44/107/4 34/97/4 46/100/4 50/108/4
f 51/109/4 52/110/4 56/111/4 55/112/4 54/113/4 53/114/4
f 36/115/9 34/116/9 52/117/9 51/118/9
f 34/116/8 44/119/8 56/120/8 52/117/8
f 42/121/7 40/87/7 54/90/7 55/122/7
f 38/123/1 36/124/1 51/125/1 53/126/1
f 44/127/2 42/128/2 55/129/2 56/130/2
